<?xml version="1.0" encoding="utf-8"?><svg xmlns="http://www.w3.org/2000/svg" xmlns:xlink="http://www.w3.org/1999/xlink"><symbol fill="none" viewBox="0 0 79 78" id="about-product" xmlns="http://www.w3.org/2000/svg"><g filter="url(#aa)"><circle cx="39.5" cy="35" r="20" fill="#37A5FF"/><circle cx="39.5" cy="35" r="23.5" stroke="#88C9FF" stroke-opacity=".15" stroke-width="7"/></g><g filter="url(#ab)"><path fill-rule="evenodd" clip-rule="evenodd" d="M48.686 29.305a1.02 1.02 0 010 1.471l-10.214 9.92a1.093 1.093 0 01-1.515-.001l-4.643-4.508a1.02 1.02 0 010-1.472 1.094 1.094 0 011.515 0l3.885 3.773 9.457-9.183a1.094 1.094 0 011.515 0z" fill="#fff"/></g><defs><filter id="aa" x=".5" y="0" width="78" height="78" filterUnits="userSpaceOnUse" color-interpolation-filters="sRGB"><feFlood flood-opacity="0" result="BackgroundImageFix"/><feColorMatrix in="SourceAlpha" values="0 0 0 0 0 0 0 0 0 0 0 0 0 0 0 0 0 0 127 0" result="hardAlpha"/><feOffset dy="4"/><feGaussianBlur stdDeviation="6"/><feColorMatrix values="0 0 0 0 0.533333 0 0 0 0 0.788235 0 0 0 0 1 0 0 0 0.6 0"/><feBlend in2="BackgroundImageFix" result="effect1_dropShadow_68_638"/><feBlend in="SourceGraphic" in2="effect1_dropShadow_68_638" result="shape"/></filter><filter id="ab" x="12" y="9" width="57" height="52" filterUnits="userSpaceOnUse" color-interpolation-filters="sRGB"><feFlood flood-opacity="0" result="BackgroundImageFix"/><feColorMatrix in="SourceAlpha" values="0 0 0 0 0 0 0 0 0 0 0 0 0 0 0 0 0 0 127 0" result="hardAlpha"/><feOffset/><feGaussianBlur stdDeviation="10"/><feComposite in2="hardAlpha" operator="out"/><feColorMatrix values="0 0 0 0 1 0 0 0 0 1 0 0 0 0 1 0 0 0 1 0"/><feBlend in2="BackgroundImageFix" result="effect1_dropShadow_68_638"/><feBlend in="SourceGraphic" in2="effect1_dropShadow_68_638" result="shape"/></filter></defs></symbol><symbol fill="none" viewBox="0 0 8 14" id="arrow-gray" xmlns="http://www.w3.org/2000/svg"><path d="M1 1l6 6-6 6" stroke="#576077" stroke-width="2" stroke-linecap="round" stroke-linejoin="round"/></symbol><symbol fill="none" viewBox="0 0 24 24" id="calling" xmlns="http://www.w3.org/2000/svg"><path d="M14.418 5.49a.854.854 0 00-1.004.68.862.862 0 00.678 1.01 3.462 3.462 0 012.743 2.75.86.86 0 001.006.682.865.865 0 00.677-1.012 5.174 5.174 0 00-4.1-4.11z" fill="#576077"/><path d="M14.356 2.008a.817.817 0 00-.625.176.852.852 0 00-.323.584.86.86 0 00.757.95 6.912 6.912 0 016.126 6.139.857.857 0 101.704-.192c-.454-4.058-3.595-7.206-7.639-7.657z" fill="#576077"/><path fill-rule="evenodd" clip-rule="evenodd" d="M11.032 12.972c3.989 3.988 4.894-.625 7.434 1.913 2.448 2.448 3.856 2.938.753 6.04-.388.312-2.857 4.07-11.534-4.605C-.993 7.644 2.762 5.172 3.074 4.784c3.11-3.11 3.592-1.695 6.04.753 2.54 2.54-2.071 3.447 1.918 7.435z" fill="#576077"/></symbol><symbol fill="none" viewBox="0 0 22 22" id="cart" xmlns="http://www.w3.org/2000/svg"><path d="M4 4.914L.757 1.672 2.172.257 5.414 3.5h15.242a1 1 0 01.958 1.287l-2.4 8a1 1 0 01-.958.713H6v2h11v2H5a1 1 0 01-1-1V4.914zM5.5 21.5a1.5 1.5 0 110-3 1.5 1.5 0 010 3zm12 0a1.5 1.5 0 110-3 1.5 1.5 0 010 3z"/></symbol><symbol fill="none" viewBox="0 0 24 24" id="contact-phone" xmlns="http://www.w3.org/2000/svg"><path d="M16 2v6h6m1-7l-7 7m6 8.92v3a1.998 1.998 0 01-2.18 2 19.791 19.791 0 01-8.63-3.07 19.5 19.5 0 01-6-6 19.79 19.79 0 01-3.07-8.67A2 2 0 014.11 2h3a2 2 0 012 1.72c.127.96.362 1.903.7 2.81a2 2 0 01-.45 2.11L8.09 9.91a16.001 16.001 0 006 6l1.27-1.27a2 2 0 012.11-.45c.908.339 1.85.574 2.81.7A2 2 0 0122 16.92z" stroke="#959AAE" stroke-width="2" stroke-linecap="round" stroke-linejoin="round"/></symbol><symbol fill="none" viewBox="0 0 93 93" id="contacts-map-marker" xmlns="http://www.w3.org/2000/svg"><path d="M70.34 9.54C64.105 3.388 55.817 0 47.002 0 38.186 0 29.9 3.388 23.666 9.54c-11.535 11.383-12.969 32.8-3.104 45.776L47.003 93l26.401-37.632c9.904-13.028 8.47-34.445-3.065-45.828z" fill="#0074D4"/><path fill-rule="evenodd" clip-rule="evenodd" d="M47 52c10.493 0 19-8.507 19-19s-8.507-19-19-19-19 8.507-19 19 8.507 19 19 19zm9.81-14.889L49.065 24.03c-.917-1.551-3.212-1.551-4.13 0L37.19 37.11c-.918 1.551.23 3.489 2.065 3.489h15.49c1.836 0 2.983-1.938 2.065-3.489z" fill="#fff"/></symbol><symbol fill="none" viewBox="0 0 20 20" id="delete" xmlns="http://www.w3.org/2000/svg"><path d="M2.5 5h15M6.667 5V3.333a1.667 1.667 0 011.666-1.666h3.334a1.667 1.667 0 011.666 1.666V5m2.5 0v11.667a1.667 1.667 0 01-1.666 1.666H5.833a1.667 1.667 0 01-1.666-1.666V5h11.666zm-7.5 4.167v5m3.334-5v5" stroke="#959AAE" stroke-width="1.5" stroke-linecap="round" stroke-linejoin="round"/></symbol><symbol fill="none" viewBox="0 0 10 6" id="expand-arrow" xmlns="http://www.w3.org/2000/svg"><path d="M1 1l4 4 4-4" stroke="#0074D4" stroke-width="1.2"/></symbol><symbol fill="none" viewBox="0 0 24 24" id="location" xmlns="http://www.w3.org/2000/svg"><path d="M17.945 2.462A8.35 8.35 0 0012 0a8.35 8.35 0 00-5.943 2.462c-2.938 2.937-3.303 8.464-.79 11.813l4.267 6.163c1.193 1.723 3.74 1.723 4.933 0l4.257-6.15c2.523-3.362 2.157-8.889-.78-11.826zm-5.866 8.934A3.072 3.072 0 019.01 8.328a3.072 3.072 0 013.068-3.068 3.072 3.072 0 013.068 3.068 3.072 3.072 0 01-3.068 3.068z" fill="#576077"/></symbol><symbol fill="none" viewBox="0 0 99 99" id="map-marker" xmlns="http://www.w3.org/2000/svg"><path d="M74.019 10.155C67.47 3.607 58.763 0 49.503 0 40.24 0 31.535 3.607 24.986 10.155c-12.119 12.118-13.625 34.916-3.261 48.73L49.503 99l27.736-40.06c10.405-13.869 8.899-36.667-3.22-48.784zM49.823 47.008c-6.977 0-12.656-5.68-12.656-12.656 0-6.977 5.679-12.656 12.656-12.656s12.656 5.679 12.656 12.656-5.68 12.656-12.656 12.656z" fill="#0074D4"/></symbol><symbol fill="none" viewBox="0 0 24 25" id="messag" xmlns="http://www.w3.org/2000/svg"><path d="M16.939 3.695A5.057 5.057 0 0122 8.745v7.9c0 2.79-2.27 5.05-5.061 5.05H7.06A5.057 5.057 0 012 16.645v-7.9a5.05 5.05 0 015.06-5.05h9.879zm1.131 5.2a.76.76 0 00-.561.2L13 12.695a1.566 1.566 0 01-2 0l-4.5-3.6a.76.76 0 00-1 .07c-.27.27-.3.7-.071 1l.131.13 4.55 3.55a3.143 3.143 0 003.909 0l4.511-3.61.08-.08a.773.773 0 00-.011-1 .84.84 0 00-.529-.26z" fill="#576077"/></symbol><symbol fill="none" viewBox="0 0 34 34" id="phone" xmlns="http://www.w3.org/2000/svg"><g clip-path="url(#la)" fill="#959AAE"><path d="M23.313 14.106a.854.854 0 00-1.191-.228.862.862 0 00-.235 1.192 3.462 3.462 0 01-.005 3.885.86.86 0 00.23 1.193.865.865 0 001.194-.236 5.174 5.174 0 00.007-5.806z"/><path d="M25.732 11.601a.818.818 0 00-.566-.318.852.852 0 00-.642.186.86.86 0 00-.136 1.206 6.912 6.912 0 01-.01 8.672.857.857 0 101.341 1.07c2.548-3.19 2.554-7.637.013-10.816z"/><path fill-rule="evenodd" clip-rule="evenodd" d="M15.628 17.003c0 5.64 3.903 3.018 3.904 6.608 0 3.463.649 4.805-3.738 4.804-.495-.054-4.898.857-4.9-11.412-.002-12.271 4.401-11.364 4.897-11.417 4.398 0 3.738 1.341 3.738 4.804.001 3.591-3.902.972-3.901 6.613z"/></g><defs><clipPath id="la"><path fill="#fff" transform="rotate(45 8.465 20.535)" d="M0 0h24v24H0z"/></clipPath></defs></symbol><symbol fill="none" viewBox="0 0 18 18" id="piperclip" xmlns="http://www.w3.org/2000/svg"><path d="M16.08 8.287L9.187 15.18A4.502 4.502 0 012.82 8.812L9.712 1.92a3.002 3.002 0 014.245 4.245l-6.9 6.892a1.5 1.5 0 11-2.122-2.122l6.368-6.36" stroke="#0074D4" stroke-width="2" stroke-linecap="round" stroke-linejoin="round"/></symbol><symbol fill="none" viewBox="0 0 70 70" id="play" xmlns="http://www.w3.org/2000/svg"><path d="M46.545 33.629L32.01 23.063a1.753 1.753 0 00-2.783 1.414v21.125a1.747 1.747 0 002.783 1.411l14.535-10.556c.46-.338.727-.86.727-1.414a1.74 1.74 0 00-.727-1.414z" fill="#DA5C3E"/><path d="M35.001.002C15.667.002 0 15.67 0 35.003c0 19.327 15.667 34.99 35.001 34.99C54.331 69.993 70 54.328 70 35.003c.002-19.333-15.67-35-34.999-35zm0 64.151c-16.1 0-29.154-13.047-29.154-29.15C5.847 18.907 18.9 5.844 35 5.844c16.099 0 29.15 13.061 29.15 29.16.002 16.102-13.051 29.15-29.15 29.15z" fill="#DA5C3E"/></symbol><symbol fill="none" viewBox="0 0 18 18" id="search" xmlns="http://www.w3.org/2000/svg"><path d="M8.25 14.25a6 6 0 100-12 6 6 0 000 12zm7.5 1.5l-3.263-3.262" opacity=".3" stroke="#2B3350" stroke-width="2" stroke-linecap="round" stroke-linejoin="round"/></symbol><symbol fill="none" viewBox="0 0 20 20" id="send" xmlns="http://www.w3.org/2000/svg"><path d="M18.334 1.667l-9.167 9.166m9.167-9.166L12.5 18.332l-3.333-7.5-7.5-3.333 16.667-5.833z" stroke="#2B3350" stroke-width="2" stroke-linecap="round" stroke-linejoin="round"/></symbol><symbol fill="none" viewBox="0 0 20 20" id="shopping-cart" xmlns="http://www.w3.org/2000/svg"><g clip-path="url(#qa)" stroke="#2B3350" stroke-width="2" stroke-linecap="round" stroke-linejoin="round"><path d="M7.5 18.333a.833.833 0 100-1.666.833.833 0 000 1.666zm9.166 0a.833.833 0 100-1.666.833.833 0 000 1.666zM.833.833h3.333L6.4 11.992a1.667 1.667 0 001.666 1.341h8.1a1.667 1.667 0 001.667-1.341L19.166 5H5"/></g><defs><clipPath id="qa"><path fill="#fff" d="M0 0h20v20H0z"/></clipPath></defs></symbol><symbol fill="none" viewBox="0 0 8 14" id="slider-arrow" xmlns="http://www.w3.org/2000/svg"><path d="M1 1l6 6-6 6" stroke="#576077" stroke-width="2" stroke-linecap="round" stroke-linejoin="round"/></symbol><symbol fill="none" viewBox="0 0 24 24" id="user" xmlns="http://www.w3.org/2000/svg"><path d="M20 21v-2a4 4 0 00-4-4H8a4 4 0 00-4 4v2m8-10a4 4 0 100-8 4 4 0 000 8z" stroke="#959AAE" stroke-width="2" stroke-linecap="round" stroke-linejoin="round"/></symbol></svg>